<mxfile host="Electron" modified="2024-04-01T23:53:46.637Z" agent="Mozilla/5.0 (X11; Linux x86_64) AppleWebKit/537.36 (KHTML, like Gecko) draw.io/24.1.0 Chrome/120.0.6099.109 Electron/28.1.0 Safari/537.36" etag="NXafpaBCKy0vDBgiMZRr" version="24.1.0" type="device">
  <diagram name="Page-1" id="MbO_Fs_gu_y6qhIdkcBi">
    <mxGraphModel dx="500" dy="300" grid="1" gridSize="10" guides="1" tooltips="1" connect="1" arrows="1" fold="1" page="1" pageScale="1" pageWidth="850" pageHeight="1100" math="0" shadow="0">
      <root>
        <mxCell id="0" />
        <mxCell id="1" parent="0" />
        <mxCell id="pu6nMTay8I4xTvFi4APe-5" value="" style="rounded=0;whiteSpace=wrap;html=1;fillColor=none;" vertex="1" parent="1">
          <mxGeometry x="245" y="125" width="290" height="245" as="geometry" />
        </mxCell>
        <mxCell id="pu6nMTay8I4xTvFi4APe-1" value="Player" style="shape=umlActor;verticalLabelPosition=bottom;verticalAlign=top;html=1;outlineConnect=0;" vertex="1" parent="1">
          <mxGeometry x="160" y="200" width="30" height="60" as="geometry" />
        </mxCell>
        <mxCell id="pu6nMTay8I4xTvFi4APe-2" value="Jogar" style="ellipse;whiteSpace=wrap;html=1;" vertex="1" parent="1">
          <mxGeometry x="330" y="170" width="120" height="40" as="geometry" />
        </mxCell>
        <mxCell id="pu6nMTay8I4xTvFi4APe-3" value="Verificar pontos" style="ellipse;whiteSpace=wrap;html=1;" vertex="1" parent="1">
          <mxGeometry x="330" y="280" width="120" height="40" as="geometry" />
        </mxCell>
        <mxCell id="pu6nMTay8I4xTvFi4APe-6" value="Hangman" style="text;html=1;align=center;verticalAlign=middle;whiteSpace=wrap;rounded=0;" vertex="1" parent="1">
          <mxGeometry x="360" y="100" width="60" height="30" as="geometry" />
        </mxCell>
        <mxCell id="pu6nMTay8I4xTvFi4APe-7" value="" style="endArrow=none;html=1;rounded=0;" edge="1" parent="1" source="pu6nMTay8I4xTvFi4APe-1" target="pu6nMTay8I4xTvFi4APe-2">
          <mxGeometry width="50" height="50" relative="1" as="geometry">
            <mxPoint x="360" y="260" as="sourcePoint" />
            <mxPoint x="410" y="210" as="targetPoint" />
          </mxGeometry>
        </mxCell>
        <mxCell id="pu6nMTay8I4xTvFi4APe-8" value="" style="endArrow=none;html=1;rounded=0;" edge="1" parent="1" source="pu6nMTay8I4xTvFi4APe-1" target="pu6nMTay8I4xTvFi4APe-3">
          <mxGeometry width="50" height="50" relative="1" as="geometry">
            <mxPoint x="360" y="260" as="sourcePoint" />
            <mxPoint x="410" y="210" as="targetPoint" />
          </mxGeometry>
        </mxCell>
      </root>
    </mxGraphModel>
  </diagram>
</mxfile>
